<?xml version="1.0" encoding="UTF-8" standalone="no"?>
<!DOCTYPE svg PUBLIC "-//W3C//DTD SVG 1.1//EN" "http://www.w3.org/Graphics/SVG/1.1/DTD/svg11.dtd">
<svg version="1.1" xmlns="http://www.w3.org/2000/svg" xmlns:xlink="http://www.w3.org/1999/xlink" preserveAspectRatio="xMidYMid meet" viewBox="0 0 700 500" width="700" height="500"><defs><path d="M262.73 134.97C266.17 134.97 268.96 137.76 268.96 141.2C268.96 197.29 268.96 359.31 268.96 415.4C268.96 418.84 266.17 421.63 262.73 421.63C236.35 421.63 163.45 421.63 137.07 421.63C133.63 421.63 130.83 418.84 130.83 415.4C130.83 359.31 130.83 197.29 130.83 141.2C130.83 137.76 133.63 134.97 137.07 134.97C163.45 134.97 236.35 134.97 262.73 134.97Z" id="fzfJ5TSjX"></path><path d="M234.65 210.75C234.65 228.85 219.85 243.54 201.62 243.54C183.39 243.54 168.59 228.85 168.59 210.75C168.59 192.64 183.39 177.95 201.62 177.95C219.85 177.95 234.65 192.64 234.65 210.75Z" id="aetuuOsJB"></path><path d="M213.61 210.75C213.61 217.14 208.24 222.33 201.62 222.33C195.01 222.33 189.64 217.14 189.64 210.75C189.64 204.35 195.01 199.16 201.62 199.16C208.24 199.16 213.61 204.35 213.61 210.75Z" id="b1CmOFaAMa"></path><path d="M248.46 344.25C248.46 370.66 226.7 392.09 199.9 392.09C173.1 392.09 151.34 370.66 151.34 344.25C151.34 317.85 173.1 296.41 199.9 296.41C226.7 296.41 248.46 317.85 248.46 344.25Z" id="a2BBbMQXlB"></path><path d="M217.52 344.25C217.52 353.98 209.63 361.88 199.9 361.88C190.17 361.88 182.27 353.98 182.27 344.25C182.27 334.52 190.17 326.63 199.9 326.63C209.63 326.63 217.52 334.52 217.52 344.25Z" id="c4PrhOMggY"></path><path d="M268.96 416.92C279.85 407.85 286.65 402.18 289.38 399.91C294.94 395.28 298.16 388.41 298.16 381.17C298.16 325.37 298.16 173.37 298.16 118.56C298.16 109.5 290.81 102.15 281.75 102.15C257.06 102.15 195.19 102.15 169.44 102.15C162.41 102.15 155.78 105.42 151.5 111C148.74 114.59 141.86 123.57 130.83 137.93" id="d6j6oBKUB"></path><path d="M268.96 137.73L294.5 106.89" id="aodYIp27G"></path><path d="M427.22 134.97C423.78 134.97 420.99 137.76 420.99 141.2C420.99 197.29 420.99 359.31 420.99 415.4C420.99 418.84 423.78 421.63 427.22 421.63C453.6 421.63 526.5 421.63 552.88 421.63C556.32 421.63 559.12 418.84 559.12 415.4C559.12 359.31 559.12 197.29 559.12 141.2C559.12 137.76 556.32 134.97 552.88 134.97C526.5 134.97 453.6 134.97 427.22 134.97Z" id="b1q21asIO"></path><path d="M455.3 210.75C455.3 228.85 470.1 243.54 488.33 243.54C506.56 243.54 521.36 228.85 521.36 210.75C521.36 192.64 506.56 177.95 488.33 177.95C470.1 177.95 455.3 192.64 455.3 210.75Z" id="a2oYcvMIyE"></path><path d="M478.06 210.75C478.06 217.14 483.44 222.33 490.05 222.33C496.67 222.33 502.04 217.14 502.04 210.75C502.04 204.35 496.67 199.16 490.05 199.16C483.44 199.16 478.06 204.35 478.06 210.75Z" id="bYzrasm9c"></path><path d="M441.49 344.25C441.49 370.66 463.25 392.09 490.05 392.09C516.85 392.09 538.61 370.66 538.61 344.25C538.61 317.85 516.85 296.41 490.05 296.41C463.25 296.41 441.49 317.85 441.49 344.25Z" id="a5CGVpL4jU"></path><path d="M472.43 345.63C472.43 355.36 480.32 363.26 490.05 363.26C499.78 363.26 507.68 355.36 507.68 345.63C507.68 335.9 499.78 328.01 490.05 328.01C480.32 328.01 472.43 335.9 472.43 345.63Z" id="a1v6LsLG3F"></path><path d="M584.28 372.03C598.19 367.12 606.58 357.52 609.46 343.24C612.34 328.96 603.95 316.69 584.28 306.43" id="i1vwsrepp"></path><path d="M611.39 158.48C630.45 166.3 641.95 181.59 645.89 204.35C649.83 227.1 638.33 246.66 611.39 263.02" id="b1yFthfKx"></path><path d="M420.99 416.92C410.1 407.85 403.3 402.18 400.57 399.91C395.01 395.28 391.79 388.41 391.79 381.17C391.79 325.37 391.79 173.37 391.79 118.56C391.79 109.5 399.14 102.15 408.2 102.15C432.9 102.15 494.76 102.15 520.51 102.15C527.54 102.15 534.17 105.42 538.45 111C541.21 114.59 548.09 123.57 559.12 137.93" id="a1X3GJ7PGn"></path><path d="M611.39 390.1C630.45 382.27 641.95 366.98 645.89 344.23C649.83 321.47 638.33 301.91 611.39 285.56" id="a4FWq5loVp"></path><path d="M584.28 176.55C598.19 181.45 606.58 191.05 609.46 205.33C612.34 219.61 603.95 231.88 584.28 242.14" id="a1J1Egws2g"></path><path d="M420.99 137.73L395.45 106.89" id="cbySLDbpP"></path><path d="M101.9 372.03C87.99 367.12 79.6 357.52 76.72 343.24C73.84 328.96 82.23 316.69 101.9 306.43" id="e3nfVtxv4"></path><path d="M74.79 158.48C55.73 166.3 44.23 181.59 40.29 204.35C36.35 227.1 47.85 246.66 74.79 263.02" id="a7Y4VyuzK"></path><path d="M74.79 390.1C55.73 382.27 44.23 366.98 40.29 344.23C36.35 321.47 47.85 301.91 74.79 285.56" id="a6XGNrOK75"></path><path d="M101.9 176.55C87.99 181.45 79.6 191.05 76.72 205.33C73.84 219.61 82.23 231.88 101.9 242.14" id="cvZAClFzD"></path></defs><g><g><g><use xlink:href="#fzfJ5TSjX" opacity="1" fill="#ffffff" fill-opacity="1"></use><g><use xlink:href="#fzfJ5TSjX" opacity="1" fill-opacity="0" stroke="#000000" stroke-width="2" stroke-opacity="1"></use></g></g><g><use xlink:href="#aetuuOsJB" opacity="1" fill="#ffffff" fill-opacity="1"></use><g><use xlink:href="#aetuuOsJB" opacity="1" fill-opacity="0" stroke="#000000" stroke-width="2" stroke-opacity="1"></use></g></g><g><use xlink:href="#b1CmOFaAMa" opacity="1" fill="#ffffff" fill-opacity="1"></use><g><use xlink:href="#b1CmOFaAMa" opacity="1" fill-opacity="0" stroke="#000000" stroke-width="2" stroke-opacity="1"></use></g></g><g><use xlink:href="#a2BBbMQXlB" opacity="1" fill="#ffffff" fill-opacity="1"></use><g><use xlink:href="#a2BBbMQXlB" opacity="1" fill-opacity="0" stroke="#000000" stroke-width="2" stroke-opacity="1"></use></g></g><g><use xlink:href="#c4PrhOMggY" opacity="1" fill="#ffffff" fill-opacity="1"></use><g><use xlink:href="#c4PrhOMggY" opacity="1" fill-opacity="0" stroke="#000000" stroke-width="2" stroke-opacity="1"></use></g></g><g><g><use xlink:href="#d6j6oBKUB" opacity="1" fill-opacity="0" stroke="#000000" stroke-width="2" stroke-opacity="1"></use></g></g><g><g><use xlink:href="#aodYIp27G" opacity="1" fill-opacity="0" stroke="#000000" stroke-width="2" stroke-opacity="1"></use></g></g><g><use xlink:href="#b1q21asIO" opacity="1" fill="#ffffff" fill-opacity="1"></use><g><use xlink:href="#b1q21asIO" opacity="1" fill-opacity="0" stroke="#000000" stroke-width="2" stroke-opacity="1"></use></g></g><g><use xlink:href="#a2oYcvMIyE" opacity="1" fill="#ffffff" fill-opacity="1"></use><g><use xlink:href="#a2oYcvMIyE" opacity="1" fill-opacity="0" stroke="#000000" stroke-width="2" stroke-opacity="1"></use></g></g><g><use xlink:href="#bYzrasm9c" opacity="1" fill="#ffffff" fill-opacity="1"></use><g><use xlink:href="#bYzrasm9c" opacity="1" fill-opacity="0" stroke="#000000" stroke-width="2" stroke-opacity="1"></use></g></g><g><use xlink:href="#a5CGVpL4jU" opacity="1" fill="#ffffff" fill-opacity="1"></use><g><use xlink:href="#a5CGVpL4jU" opacity="1" fill-opacity="0" stroke="#000000" stroke-width="2" stroke-opacity="1"></use></g></g><g><use xlink:href="#a1v6LsLG3F" opacity="1" fill="#ffffff" fill-opacity="1"></use><g><use xlink:href="#a1v6LsLG3F" opacity="1" fill-opacity="0" stroke="#000000" stroke-width="2" stroke-opacity="1"></use></g></g><g><use xlink:href="#i1vwsrepp" opacity="1" fill="#ffffff" fill-opacity="1"></use><g><use xlink:href="#i1vwsrepp" opacity="1" fill-opacity="0" stroke="#000000" stroke-width="2" stroke-opacity="1"></use></g></g><g><use xlink:href="#b1yFthfKx" opacity="1" fill="#ffffff" fill-opacity="1"></use><g><use xlink:href="#b1yFthfKx" opacity="1" fill-opacity="0" stroke="#000000" stroke-width="2" stroke-opacity="1"></use></g></g><g><g><use xlink:href="#a1X3GJ7PGn" opacity="1" fill-opacity="0" stroke="#000000" stroke-width="2" stroke-opacity="1"></use></g></g><g><use xlink:href="#a4FWq5loVp" opacity="1" fill="#ffffff" fill-opacity="1"></use><g><use xlink:href="#a4FWq5loVp" opacity="1" fill-opacity="0" stroke="#000000" stroke-width="2" stroke-opacity="1"></use></g></g><g><use xlink:href="#a1J1Egws2g" opacity="1" fill="#ffffff" fill-opacity="1"></use><g><use xlink:href="#a1J1Egws2g" opacity="1" fill-opacity="0" stroke="#000000" stroke-width="2" stroke-opacity="1"></use></g></g><g><g><use xlink:href="#cbySLDbpP" opacity="1" fill-opacity="0" stroke="#000000" stroke-width="2" stroke-opacity="1"></use></g></g><g><use xlink:href="#e3nfVtxv4" opacity="1" fill="#ffffff" fill-opacity="1"></use><g><use xlink:href="#e3nfVtxv4" opacity="1" fill-opacity="0" stroke="#000000" stroke-width="2" stroke-opacity="1"></use></g></g><g><use xlink:href="#a7Y4VyuzK" opacity="1" fill="#ffffff" fill-opacity="1"></use><g><use xlink:href="#a7Y4VyuzK" opacity="1" fill-opacity="0" stroke="#000000" stroke-width="2" stroke-opacity="1"></use></g></g><g><use xlink:href="#a6XGNrOK75" opacity="1" fill="#ffffff" fill-opacity="1"></use><g><use xlink:href="#a6XGNrOK75" opacity="1" fill-opacity="0" stroke="#000000" stroke-width="2" stroke-opacity="1"></use></g></g><g><use xlink:href="#cvZAClFzD" opacity="1" fill="#ffffff" fill-opacity="1"></use><g><use xlink:href="#cvZAClFzD" opacity="1" fill-opacity="0" stroke="#000000" stroke-width="2" stroke-opacity="1"></use></g></g></g></g></svg>